<svg xmlns="http://www.w3.org/2000/svg" viewBox="0 0 301 301"><defs><style>.cls-1{fill:#1d1d1b;stroke:#040505;}.cls-1,.cls-2{stroke-miterlimit:10;}.cls-2{fill:#fff;stroke:#fff;}</style></defs><g id="Layer_2" data-name="Layer 2"><circle class="cls-1" cx="150.5" cy="150.5" r="150"/></g><g id="Layer_1" data-name="Layer 1"><path class="cls-2" d="M225.66,180.48v33.75a1.75,1.75,0,0,1-1.68,2L203.66,220,188,222.84a1.75,1.75,0,0,1-2.35-1.8A5.31,5.31,0,1,0,175.3,223a1.74,1.74,0,0,1-1.51,2.48l-20.27,3.71-23.73,4.32-13.56,2.48a1.74,1.74,0,0,1-2.16-1.43,10.6,10.6,0,0,0-8.39-8.27,10.83,10.83,0,0,0-12.86,8.62,12.27,12.27,0,0,0-.06,3.63,1.67,1.67,0,0,1-1.42,2L79,242.74c-.57.1-1.13.22-1.7.3a1.68,1.68,0,0,1-2-1.67c0-.17,0-.33,0-.5V175.51c0-.29,0-.58,0-.87a1.73,1.73,0,0,1,.71-1.41l14.37-12,31.8-26.57q18.92-15.79,37.82-31.59A21.43,21.43,0,0,1,174.2,98a22,22,0,0,1,17.3,8.12q16.69,19.43,33.43,38.82a2.94,2.94,0,0,1,.74,2.07Q225.64,163.71,225.66,180.48Zm-3.43-32-.56.1-12.1,2.32-22,4.22L166,159.29l-21.13,4.06-21.49,4.13-21.14,4.06q-11.49,2.21-23,4.41c-.39.08-.52.2-.52.6q0,31.11,0,62.22c0,.16,0,.33,0,.52l10.33-1.89c.11-1.08.16-2.11.34-3.12a14.21,14.21,0,0,1,15.48-11.63,14,14,0,0,1,11.92,9.22c.15.37.3.42.66.35,2.89-.54,5.79-1.07,8.68-1.59l21.76-4,20.72-3.78,2.93-.54a8.79,8.79,0,0,1,17.26-3.18,2.16,2.16,0,0,0,.35,0l12-2.19,20.27-3.71c.83-.15.7,0,.7-.8V148.49ZM83.41,171.57l0,.09L220.7,145.27c-.16-.18-.26-.31-.37-.44l-31.64-36.75a18.46,18.46,0,0,0-12.4-6.55,18.15,18.15,0,0,0-14,4.16q-15,12.5-30,25.07L86,169.38Z"/><path class="cls-2" d="M182,183.2a14.27,14.27,0,1,1-14.25-14.31A14.29,14.29,0,0,1,182,183.2Zm-3.42,0a10.84,10.84,0,1,0-11,10.81A10.88,10.88,0,0,0,178.61,183.2Z"/><path class="cls-2" d="M117.77,192.29A14.29,14.29,0,1,1,103.5,178,14.33,14.33,0,0,1,117.77,192.29Zm-14.29,10.82a10.84,10.84,0,1,0-10.83-10.87A10.85,10.85,0,0,0,103.48,203.11Z"/><path class="cls-2" d="M137.82,201.38a8.74,8.74,0,1,1-8.74,8.7A8.74,8.74,0,0,1,137.82,201.38Zm-5.3,8.72a5.3,5.3,0,1,0,5.3-5.29A5.31,5.31,0,0,0,132.52,210.1Z"/><path class="cls-2" d="M193.37,201a8.74,8.74,0,1,1,8.72,8.72A8.73,8.73,0,0,1,193.37,201Zm8.73-5.33a5.3,5.3,0,1,0,5.32,5.29A5.32,5.32,0,0,0,202.1,195.71Z"/><path class="cls-2" d="M187.09,131.59a13.79,13.79,0,1,1-13.73-13.77A13.82,13.82,0,0,1,187.09,131.59Zm-13.82,10.32A10.34,10.34,0,1,0,163,131.54,10.36,10.36,0,0,0,173.27,141.91Z"/><path class="cls-2" d="M129.08,147.73a8.75,8.75,0,1,1,8.66,8.74A8.76,8.76,0,0,1,129.08,147.73Zm8.74,5.3a5.3,5.3,0,1,0-5.3-5.29A5.29,5.29,0,0,0,137.82,153Z"/></g><g id="Layer_3" data-name="Layer 3"><path class="cls-2" d="M30.16,121c0,.25-.17,1.29-.42,3.11s-.61,4.6-1.07,8.3l7.22,1,6.73.87q4.1.53,8.32,1l5.63.65-.49,3.84q-1.38-.23-5.69-.8c-2.87-.39-5.67-.76-8.42-1.1L35.54,137q-2.38-.3-7.35-.86c-.44,3.3-.77,6-1,8s-.37,3.18-.39,3.38l-3.21-.4q.3-2.4.76-5.82c.3-2.29.62-4.72.95-7.31q.71-5.62,1.16-9.41c.31-2.52.47-3.88.5-4.08Z"/><path class="cls-2" d="M70,97l-1.61,3.52c-.84-.41-2.41-1.14-4.7-2.21s-5.14-2.38-8.57-3.94c-.09.21-.67,1.47-1.74,3.79s-1.86,4-2.39,5.22q-1,2.1-2.3,5.07l-1.45,3.21q5.92,2.7,9,4.06l4.36,1.92L59,121.15,54.47,119q-3.24-1.53-11-5.07-2.34-1.07-5.73-2.57l-7.3-3.25,1.6-3.51q3.24,1.47,6.35,2.94t5.92,2.75c.07-.17.5-1.1,1.28-2.78L48.1,102q1-2.3,2.52-5.55L52.18,93q-2.82-1.28-6-2.66c-2.09-.91-4.22-1.87-6.39-2.86L41.44,84c2.13,1,4.6,2.16,7.41,3.47s5.09,2.36,6.87,3.17Q62,93.48,65.35,95Z"/><path class="cls-2" d="M88.61,75.33c-.09.11-.79.87-2.1,2.3s-2.93,3.2-4.85,5.32q-2,2.2-3.63,4.06l-2.79,3.12q-1-.94-4.31-4T64,79.82L58.8,75.14c-2.16-1.94-4.42-3.93-6.75-6,.74-.83,1.68-1.85,2.8-3.07s2.29-2.49,3.47-3.8c2-2.22,3.63-4,4.87-5.43s1.92-2.16,2-2.27l2.41,2.18c-.1.12-.77.84-2,2.16s-2.75,3-4.55,5l-2.3,2.56-1.78,2c1.3,1.18,2.6,2.38,3.88,3.58s2.51,2.33,3.67,3.37l1.68-1.84c.65-.71,1.23-1.34,1.73-1.9q2.76-3.06,4.92-5.49l2.29-2.58,2.4,2.16L75,68.61c-1.66,1.8-3.18,3.46-4.54,5l-1.79,2-1.74,2q3.28,3,5.23,4.7l3.26,2.89,2.28-2.47,2.85-3.13q2.34-2.6,3.92-4.38l1.77-2Z"/><path class="cls-2" d="M120.72,52.86l.42,1.12c.22.61.48,1.27.76,2l-.36.19-.37.18a32.9,32.9,0,0,1-9.74,3.25,18.68,18.68,0,0,1-8.41-.47,14.06,14.06,0,0,1-4.86-2.66,15,15,0,0,1-3.73-4.89A13.16,13.16,0,0,1,93,46.06a14.91,14.91,0,0,1,.72-5.27,18.58,18.58,0,0,1,4.55-7.09,29.06,29.06,0,0,1,8-5.77l.52-.26.42-.21.69,1.16,1,1.72-.36.18-.35.18A29.92,29.92,0,0,0,103,34a18.2,18.2,0,0,0-4,4.15A12.36,12.36,0,0,0,96.91,44,10.74,10.74,0,0,0,98,49.84a11.71,11.71,0,0,0,3.85,4.51,11.4,11.4,0,0,0,6,1.86,19.06,19.06,0,0,0,6-.64,29.93,29.93,0,0,0,5.87-2.2l.4-.2C120.33,53.08,120.52,53,120.72,52.86Z"/><path class="cls-2" d="M152.62,49.67l-3.82.61c-.14-.93-.39-2.64-.77-5.13s-.87-5.61-1.47-9.32l-4.12.65-5.67.9c-1.52.25-3.36.54-5.49.9l-3.48.57q1,6.43,1.6,9.73c.38,2.21.65,3.77.82,4.69l-3.82.62c-.13-.93-.38-2.58-.73-4.94s-1-6.36-1.88-12c-.27-1.7-.61-3.76-1-6.2s-.87-5.06-1.35-7.88l3.82-.61c.37,2.34.73,4.65,1.06,6.91s.67,4.42,1,6.46l3-.48,6-1,6-1,3.75-.62q-.5-3-1.08-6.42c-.4-2.25-.78-4.55-1.16-6.91l3.82-.62c.34,2.34.75,5,1.22,8.09s.85,5.55,1.16,7.48q1.1,6.81,1.73,10.42C152.16,47.08,152.45,48.74,152.62,49.67Z"/><path class="cls-2" d="M181,53.1l-3.08-.47q-2.88-.45-7.12-1.07-2.94-.44-5.39-.77l-4.14-.58c.16-.9.47-2.83.93-5.81s.93-6.07,1.39-9.25q.39-2.62,1-6.94t1.22-8.94l4.11.63c1.64.26,3.34.51,5.08.77,3,.43,5.36.78,7.22,1l3,.42-.48,3.23-2.9-.47q-2.67-.42-6.66-1l-3.41-.49L169.12,23c-.25,1.74-.53,3.48-.81,5.22s-.55,3.37-.77,4.92l2.47.37,2.53.39c2.72.4,5.16.74,7.3,1l3.43.47-.47,3.2L179,38c-2.43-.38-4.64-.71-6.65-1l-2.66-.38-2.59-.36q-.65,4.38-1,7c-.23,1.72-.43,3.16-.58,4.32l3.31.52,4.19.63,5.82.83,2.63.36Z"/><path class="cls-2" d="M205.88,63.34,203,62.06c-1.76-.8-4-1.77-6.57-2.93-1.82-.8-3.48-1.53-5-2.18s-2.79-1.2-3.83-1.67q.59-1.22,2.45-5.34t3.81-8.54L196.71,35c1.16-2.67,2.35-5.43,3.56-8.3l3.79,1.7q2.28,1,4.7,2.1,4.1,1.82,6.68,2.93l2.8,1.21-1.32,3-2.68-1.22q-2.46-1.12-6.15-2.76l-3.15-1.38-2.45-1.07c-.72,1.62-1.44,3.22-2.18,4.82s-1.42,3.11-2.06,4.54l2.28,1,2.35,1.05c2.51,1.11,4.76,2.1,6.75,2.95l3.18,1.36-1.31,3L208,48.27c-2.23-1-4.28-1.93-6.14-2.75-.68-.31-1.51-.66-2.46-1.08l-2.39-1q-1.8,4.05-2.82,6.44c-.69,1.59-1.26,2.93-1.72,4,.84.38,1.85.85,3.05,1.38L199.38,57l5.38,2.35,2.44,1Z"/><path class="cls-2" d="M229.55,70.19a7.83,7.83,0,0,1-3.5,2.64,8.71,8.71,0,0,1-4.22.44A14.63,14.63,0,0,1,217.68,72a22.57,22.57,0,0,1-4.3-2.69c-.79-.61-1.59-1.28-2.4-2l-1.4-1.24,1.93-2.78c.15.16.6.58,1.33,1.26s1.65,1.44,2.72,2.28a19.6,19.6,0,0,0,2.73,1.71,11.2,11.2,0,0,0,2.91,1.2,5.91,5.91,0,0,0,2.68,0A4,4,0,0,0,226,68.32a4.69,4.69,0,0,0,1-2.55,7.54,7.54,0,0,0-.64-3.16c-.31-.8-.76-1.77-1.35-2.93a32,32,0,0,1-1.46-3.27,9.7,9.7,0,0,1-.74-4.6,7.33,7.33,0,0,1,1.56-3.65,7.19,7.19,0,0,1,3-2.38,9.41,9.41,0,0,1,3.56-.66,10.4,10.4,0,0,1,3.94.93,18.89,18.89,0,0,1,4.15,2.52c.77.6,1.52,1.22,2.27,1.87s1.18,1,1.28,1.13l-1.83,2.89-1.25-1.18c-.73-.69-1.67-1.49-2.83-2.39a12.75,12.75,0,0,0-2.32-1.43,8.13,8.13,0,0,0-2.48-.8,4.8,4.8,0,0,0-2.18.21,3.79,3.79,0,0,0-1.9,1.37,3.89,3.89,0,0,0-.82,2.17,7.81,7.81,0,0,0,.7,3.32,28.65,28.65,0,0,0,1.17,2.63q.78,1.56,1.44,3.21a10.59,10.59,0,0,1,.83,4.67A7.28,7.28,0,0,1,229.55,70.19Z"/><path class="cls-2" d="M241.1,97.5,239.2,95c-1.18-1.53-2.66-3.43-4.42-5.68-1.22-1.56-2.35-3-3.37-4.28s-1.9-2.38-2.6-3.28c.73-.53,2.3-1.72,4.69-3.56s4.85-3.75,7.38-5.73c1.39-1.09,3.23-2.53,5.51-4.34s4.63-3.68,7.05-5.63c.68.87,1.53,2,2.54,3.29s2.06,2.68,3.15,4.07q2.76,3.52,4.51,5.72l1.9,2.39L263,80c-.09-.13-.69-.91-1.78-2.34s-2.47-3.21-4.13-5.33c-.72-.92-1.43-1.83-2.13-2.71l-1.65-2.09c-1.4,1.08-2.79,2.16-4.2,3.21s-2.72,2.07-4,3c.44.55,1,1.21,1.53,2l1.57,2q2.55,3.24,4.57,5.78l2.16,2.7-2.55,2-2.35-3.07q-2.25-2.92-4.12-5.32l-1.66-2.11c-.65-.81-1.19-1.49-1.62-2q-3.49,2.73-5.52,4.35l-3.41,2.72c.56.74,1.23,1.63,2,2.67s1.67,2.15,2.6,3.34c1.44,1.84,2.65,3.37,3.64,4.62s1.54,1.93,1.66,2.08Z"/><path class="cls-2" d="M257.69,133l-1.17.22c-.64.11-1.34.25-2.09.41q0-.18-.12-.39c0-.15-.08-.28-.11-.4a32.73,32.73,0,0,1-1.52-10.16,18.6,18.6,0,0,1,1.92-8.2,14.14,14.14,0,0,1,3.46-4.32,14.93,14.93,0,0,1,5.47-2.83,13.31,13.31,0,0,1,5.66-.49,15.15,15.15,0,0,1,5.07,1.62,18.87,18.87,0,0,1,6.2,5.71,29.48,29.48,0,0,1,4.3,8.87l.16.56c.07.21.11.36.14.45l-1.27.48-1.87.73c-.05-.15-.08-.28-.12-.39s-.06-.23-.11-.38a30.58,30.58,0,0,0-2.35-5.64,18.34,18.34,0,0,0-3.4-4.64,12.32,12.32,0,0,0-5.44-3.14,10.85,10.85,0,0,0-5.9.1,11,11,0,0,0-8,8.59,19.33,19.33,0,0,0-.4,6,30.47,30.47,0,0,0,1.14,6.16l.13.43C257.54,132.57,257.61,132.78,257.69,133Z"/><path class="cls-2" d="M271,166.53a18.22,18.22,0,0,1-6.95-1.41,15.54,15.54,0,0,1-5.18-3.47,14.25,14.25,0,0,1-4.22-10.56,15.22,15.22,0,0,1,1.09-5.46,13.78,13.78,0,0,1,3-4.59,15.82,15.82,0,0,1,5.44-3.58,18.29,18.29,0,0,1,7.32-1.27,18.67,18.67,0,0,1,6.55,1.2,15.91,15.91,0,0,1,5.28,3.39,14,14,0,0,1,3.33,4.9,15.4,15.4,0,0,1-.12,11.78,14,14,0,0,1-3.22,4.61,15.45,15.45,0,0,1-5.58,3.39A19.28,19.28,0,0,1,271,166.53Zm-.31-4a17.9,17.9,0,0,0,6-.92,12.23,12.23,0,0,0,5-3,10.4,10.4,0,0,0,2.16-3.12,9.76,9.76,0,0,0,.81-3.89,10,10,0,0,0-2.88-7.28,12.83,12.83,0,0,0-4.59-3,17,17,0,0,0-11.82-.17,12.58,12.58,0,0,0-4.57,2.94,10.48,10.48,0,0,0-2.12,3.13,9.7,9.7,0,0,0-.85,3.91,10,10,0,0,0,.7,3.92,10.42,10.42,0,0,0,2.14,3.33,12.93,12.93,0,0,0,4.25,2.95A14.42,14.42,0,0,0,270.65,162.54Z"/></g></svg>